<?xml version="1.0" encoding="UTF-8"?>
<svg id="Layer_1" data-name="Layer 1" xmlns="http://www.w3.org/2000/svg" xmlns:xlink="http://www.w3.org/1999/xlink" viewBox="0 0 1000 1000">
  <defs>
    <style>
      .cls-1 {
        fill: url(#linear-gradient-8);
      }

      .cls-1, .cls-2, .cls-3, .cls-4, .cls-5, .cls-6, .cls-7, .cls-8, .cls-9, .cls-10, .cls-11, .cls-12, .cls-13, .cls-14, .cls-15 {
        fill-rule: evenodd;
        stroke-width: 0px;
      }

      .cls-2 {
        fill: url(#linear-gradient-11);
      }

      .cls-3 {
        fill: url(#linear-gradient-7);
      }

      .cls-4 {
        fill: url(#linear-gradient-9);
      }

      .cls-5 {
        fill: url(#linear-gradient-3);
      }

      .cls-6 {
        fill: url(#linear-gradient);
      }

      .cls-7 {
        fill: url(#linear-gradient-13);
      }

      .cls-8 {
        fill: url(#linear-gradient-2);
      }

      .cls-9 {
        fill: url(#linear-gradient-15);
      }

      .cls-10 {
        fill: url(#linear-gradient-5);
      }

      .cls-16 {
        fill: #032b4e;
        font-family: Poppins-SemiBold, Poppins;
        font-size: 95.87px;
        font-weight: 600;
      }

      .cls-11 {
        fill: url(#linear-gradient-12);
      }

      .cls-12 {
        fill: url(#linear-gradient-14);
      }

      .cls-13 {
        fill: url(#linear-gradient-6);
      }

      .cls-14 {
        fill: url(#linear-gradient-4);
      }

      .cls-15 {
        fill: url(#linear-gradient-10);
      }
    </style>
    <linearGradient id="linear-gradient" x1="-159.15" y1="1022.8" x2="-303.88" y2="1022.81" gradientTransform="translate(694 1456.44) scale(1 -1)" gradientUnits="userSpaceOnUse">
      <stop offset="0" stop-color="#327f51"/>
      <stop offset="1" stop-color="#20a857"/>
    </linearGradient>
    <linearGradient id="linear-gradient-2" x1="-303.89" y1="1061.16" x2="-194.87" y2="1061.17" gradientTransform="translate(694 1456.44) scale(1 -1)" gradientUnits="userSpaceOnUse">
      <stop offset="0" stop-color="#062c53"/>
      <stop offset="1" stop-color="#105ca0"/>
    </linearGradient>
    <linearGradient id="linear-gradient-3" x1="-303.89" y1="1045.34" x2="-194.87" y2="1045.34" xlink:href="#linear-gradient-2"/>
    <linearGradient id="linear-gradient-4" x1="-303.85" y1="1000.12" x2="-194.84" y2="1000.12" xlink:href="#linear-gradient-2"/>
    <linearGradient id="linear-gradient-5" x1="-303.88" y1="984.3" x2="-194.87" y2="984.3" xlink:href="#linear-gradient-2"/>
    <linearGradient id="linear-gradient-6" x1="-303.88" y1="947.28" x2="-194.87" y2="947.29" xlink:href="#linear-gradient-2"/>
    <linearGradient id="linear-gradient-7" x1="-303.88" y1="988.03" x2="-194.87" y2="988.03" xlink:href="#linear-gradient-2"/>
    <linearGradient id="linear-gradient-8" x1="-303.89" y1="1057.43" x2="-194.87" y2="1057.43" xlink:href="#linear-gradient-2"/>
    <linearGradient id="linear-gradient-9" x1="-303.89" y1="1098.33" x2="-194.88" y2="1098.33" xlink:href="#linear-gradient-2"/>
    <linearGradient id="linear-gradient-10" x1="-303.88" y1="931.76" x2="-194.87" y2="931.76" xlink:href="#linear-gradient-2"/>
    <linearGradient id="linear-gradient-11" x1="-303.88" y1="984.89" x2="-194.87" y2="984.9" xlink:href="#linear-gradient-2"/>
    <linearGradient id="linear-gradient-12" x1="-303.89" y1="1060.26" x2="-194.87" y2="1060.27" xlink:href="#linear-gradient-2"/>
    <linearGradient id="linear-gradient-13" x1="-303.89" y1="1113.85" x2="-194.88" y2="1113.85" xlink:href="#linear-gradient-2"/>
    <linearGradient id="linear-gradient-14" x1="504.18" y1="485.43" x2="614.32" y2="485.43" gradientTransform="matrix(1,0,0,1,0,0)" xlink:href="#linear-gradient-2"/>
    <linearGradient id="linear-gradient-15" x1="504.18" y1="354.09" x2="605.07" y2="354.09" gradientTransform="matrix(1,0,0,1,0,0)" xlink:href="#linear-gradient-2"/>
  </defs>
  <text class="cls-16" transform="translate(148.78 659.21)"><tspan x="0" y="0">GLOBAL NEXUS</tspan></text>
  <g>
    <path class="cls-6" d="M535.22,433.79c0-71.64-33.73-129.85-75.52-129.85-19.4,0-37.01,12.84-50.45,33.73,61.19-78.21,96.12,47.46,96.12,96.12,0,65.37-23.58,119.4-58.51,118.51-15.52-.3-37.91-20-51.64-51.04,13.43,37.31,37.31,62.09,64.48,62.09,41.79,0,75.52-57.91,75.52-129.55Z"/>
    <g>
      <path class="cls-8" d="M417.02,385.13c-2.39-6.87-5.07-13.73-8.36-20.3-13.13,17.01-21.19,38.21-22.98,60.89,7.76-15.82,18.51-29.55,31.34-40.6Z"/>
      <path class="cls-5" d="M419.1,391.4c-12.24,11.04-22.09,24.18-28.95,39.4h34.63c-.3-13.43-2.09-26.57-5.67-39.4Z"/>
      <path class="cls-14" d="M424.78,436.77h-34.63c6.87,15.22,16.72,28.36,28.66,39.1,3.58-12.84,5.67-25.97,5.97-39.1Z"/>
      <path class="cls-10" d="M416.72,482.15c-12.84-11.04-23.28-24.78-31.04-40.3,1.49,22.69,9.85,43.58,22.69,60.6,3.28-6.57,6.27-13.43,8.36-20.3Z"/>
      <path class="cls-13" d="M421.79,486.32c-2.69,7.16-5.67,14.33-9.25,21.19,8.06,9.85,17.91,18.21,28.95,24.48,5.97-8.36,11.34-17.01,15.52-26.27-9.85-3.58-19.1-8.36-27.46-14.03-2.69-1.79-5.37-3.58-7.76-5.37Z"/>
      <path class="cls-3" d="M423.88,480.06c2.69,2.39,5.97,4.48,8.96,6.57,8.36,5.67,17.31,10.15,26.87,13.43,8.66-20,13.13-41.79,13.43-63.28h-42.39c-.3,14.63-2.69,29.25-6.87,43.28Z"/>
      <path class="cls-1" d="M430.75,430.8h42.39c-.3-21.79-4.78-43.28-13.43-63.58-9.55,3.58-18.51,8.06-26.87,13.43-2.99,2.09-5.97,4.18-8.96,6.57,4.48,14.03,6.57,28.66,6.87,43.58Z"/>
      <path class="cls-4" d="M429.55,375.58c8.36-5.67,17.61-10.15,27.46-13.73-4.18-9.25-9.55-18.21-15.52-26.57-10.75,6.57-20.6,14.63-28.66,24.18,3.58,7.16,6.57,14.33,9.25,21.49,2.39-1.79,4.78-3.58,7.46-5.37Z"/>
      <path class="cls-15" d="M485.07,512.29c-7.76-.9-14.93-2.39-22.09-4.78-4.48,9.55-9.85,18.81-16.12,27.46,5.07,2.69,10.15,5.07,15.52,6.87,10.45-6.27,17.91-18.81,22.69-29.55Z"/>
      <path class="cls-2" d="M465.37,502.14c7.16,2.09,14.63,3.58,22.09,4.18,8.06-21.49,11.34-46.57,11.64-69.55h-19.7c-.6,22.39-5.07,44.48-14.03,65.37Z"/>
      <path class="cls-11" d="M479.4,430.8h19.7c-.3-17.61-4.48-37.61-9.55-54.03-1.19-4.18-2.99-9.55-5.07-15.22-6.57.6-12.84,2.09-19.1,3.88,8.96,20.9,13.43,42.98,14.03,65.37Z"/>
      <path class="cls-7" d="M462.98,359.76c6.27-1.79,12.54-3.28,19.1-4.18-4.78-11.04-11.34-22.98-19.4-30.15-5.67,2.09-10.75,4.18-15.82,6.87,6.27,8.96,11.64,17.91,16.12,27.46Z"/>
    </g>
    <path class="cls-12" d="M576.71,456.77c-7.16,24.18-25.37,43.58-48.95,52.24-2.09,5.07-4.18,10.15-6.87,14.93-4.48,8.36-10.15,16.72-16.72,24.18,53.13-2.09,97.31-40.6,107.76-91.34,1.49-7.46,2.39-15.22,2.39-22.98,0-3.88-.3-7.46-.6-11.04h-72.54c0,3.58.3,7.46.3,11.04,0,7.46-.6,15.22-1.19,22.98h36.42Z"/>
    <path class="cls-9" d="M566.27,388.71h38.81c-17.01-39.7-55.52-67.76-100.89-69.25,6.57,7.16,12.24,15.82,16.72,24.18,2.69,4.78,4.78,9.85,6.87,14.93,15.82,5.67,29.25,16.42,38.51,30.15Z"/>
  </g>
</svg>